<svg width="214" height="150" viewBox="0 0 214 150" fill="none" xmlns="http://www.w3.org/2000/svg">
<path fill-rule="evenodd" clip-rule="evenodd" d="M69.1348 74.4658C69.1348 43.9076 84.0758 16.8152 107.099 0.000427246V148.931C84.0758 132.116 69.1348 105.024 69.1348 74.4658ZM145.063 74.4679C145.063 105.026 130.122 132.119 107.099 148.933L107.099 0.0023288C130.122 16.817 145.063 43.9096 145.063 74.4679Z" fill="url(#paint0_linear)"/>
<path fill-rule="evenodd" clip-rule="evenodd" d="M31.7791 19.7949C20.306 45.7894 21.0063 76.6716 36.3909 103.136C51.7755 129.6 78.3548 145.644 106.759 148.773L31.7791 19.7949ZM106.947 74.8836C105.546 71.6831 103.947 68.5282 102.148 65.4336C86.7638 38.9694 60.1846 22.926 31.7807 19.7965L106.76 148.775C106.811 148.659 106.862 148.542 106.913 148.426C106.975 148.568 107.037 148.71 107.1 148.852L182.079 19.874C153.675 23.0034 127.096 39.0469 111.712 65.5111C109.927 68.5806 108.34 71.7096 106.947 74.8836ZM107.099 148.854C135.503 145.725 162.083 129.681 177.467 103.217C192.852 76.7528 193.552 45.8707 182.079 19.8761L107.099 148.854Z" fill="url(#paint1_linear)"/>
<path fill-rule="evenodd" clip-rule="evenodd" d="M31.7791 19.7949C20.306 45.7894 21.0063 76.6716 36.3909 103.136C51.7755 129.6 78.3548 145.644 106.759 148.773L31.7791 19.7949ZM106.947 74.8836C105.546 71.6831 103.947 68.5282 102.148 65.4336C86.7638 38.9694 60.1846 22.926 31.7807 19.7965L106.76 148.775C106.811 148.659 106.862 148.542 106.913 148.426C106.975 148.568 107.037 148.71 107.1 148.852L182.079 19.874C153.675 23.0034 127.096 39.0469 111.712 65.5111C109.927 68.5806 108.34 71.7096 106.947 74.8836ZM107.099 148.854C135.503 145.725 162.083 129.681 177.467 103.217C192.852 76.7528 193.552 45.8707 182.079 19.8761L107.099 148.854Z" fill="black" fill-opacity="0.2"/>
<path fill-rule="evenodd" clip-rule="evenodd" d="M212.933 43.6277C184.682 39.3493 154.827 48.014 133.07 69.622C118.678 83.9156 109.988 101.728 107.001 120.271C104.014 101.729 95.3248 83.9168 80.9329 69.6236C59.1758 48.0157 29.3214 39.3509 1.06983 43.6291L1.06807 43.6274C-3.24003 71.6855 5.48452 101.336 27.2418 122.944C48.9705 144.524 78.7756 153.194 106.995 148.955C135.217 153.198 165.027 144.528 186.758 122.945C208.515 101.338 217.24 71.6878 212.932 43.6299L107.144 148.692C107.144 148.692 107.144 148.692 107.144 148.691L212.933 43.6277Z" fill="url(#paint2_linear)"/>
<defs>
<linearGradient id="paint0_linear" x1="107.099" y1="0.000427246" x2="107.099" y2="148.933" gradientUnits="userSpaceOnUse">
<stop stop-color="#00D485"/>
<stop offset="1" stop-color="#3DAEE9"/>
</linearGradient>
<linearGradient id="paint1_linear" x1="23.7974" y1="148.702" x2="211.949" y2="86.8474" gradientUnits="userSpaceOnUse">
<stop stop-color="#E93D58"/>
<stop offset="1" stop-color="#EF973C"/>
</linearGradient>
<linearGradient id="paint2_linear" x1="-0.150964" y1="149.874" x2="213.272" y2="41.2346" gradientUnits="userSpaceOnUse">
<stop stop-color="#E93D58"/>
<stop offset="1" stop-color="#EF973C"/>
</linearGradient>
</defs>
</svg>
